<svg xmlns="http://www.w3.org/2000/svg" width="70.00" height="70.00" viewBox="0 0 70.00 70.00"><g transform="matrix(1 0 0 1 0.0 0.0)"><path d="M 4.166666507720947 0 L 65.83332824707031 0 C 68.13451385498047 0 70 1.865480065345764 70 4.166666507720947 L 70 65.83332824707031 C 70 68.13451385498047 68.13451385498047 70 65.83332824707031 70 L 4.166666507720947 70 C 1.865480065345764 70 0 68.13451385498047 0 65.83332824707031 L 0 4.166666507720947 C 0 1.865480065345764 1.865480065345764 0 4.166666507720947 0 Z" fill="rgb(251,130,255)" stroke="none" stroke-width="0"/></g><g transform="matrix(1 0 0 1 5.486692905426025 6.601150274276733)"><path d="M 13.73644638061523 8.142892837524414 L 38.03396606445312 8.142892837524414 C 38.4885139465332 8.142892837524414 38.86041259765625 7.770991802215576 38.86041259765625 7.316446304321289 C 38.86041259765625 6.861900806427002 38.4885139465332 6.489999771118164 38.03396606445312 6.489999771118164 L 13.7364444732666 6.489999771118164 C 13.28189849853516 6.489999771118164 12.90999794006348 6.861900806427002 12.90999794006348 7.316446304321289 C 12.90999794006348 7.770991802215576 13.28189849853516 8.142892837524414 13.7364444732666 8.142892837524414 Z" fill="rgb(18,38,63)" stroke="none" stroke-width="0"/></g><g transform="matrix(1 0 0 1 5.486692786216736 5.693464517593384)"><path d="M 13.73644638061523 13.37289333343506 L 23.88520622253418 13.37289333343506 C 24.33975219726562 13.37289333343506 24.7116527557373 13.00099277496338 24.7116527557373 12.54644680023193 C 24.7116527557373 12.09190082550049 24.33975219726562 11.72000026702881 23.88520622253418 11.72000026702881 L 13.73644542694092 11.72000026702881 C 13.28189945220947 11.72000026702881 12.90999889373779 12.09190082550049 12.90999889373779 12.54644680023193 C 12.90999889373779 13.00099277496338 13.28189945220947 13.37289333343506 13.73644542694092 13.37289333343506 Z" fill="rgb(18,38,63)" stroke="none" stroke-width="0"/></g><g transform="matrix(1 0 0 1 5.9830561876297 3.480653762817383)"><path d="M 20.71942138671875 25.29644393920898 C 20.71942138671875 24.84189987182617 20.34751892089844 24.47000122070312 19.89297485351562 24.47000122070312 L 10.87644577026367 24.47000122070312 C 10.42189979553223 24.47000122070312 10.04999923706055 24.84189987182617 10.04999923706055 25.29644393920898 C 10.04999923706055 25.75099182128906 10.42189979553223 26.12289047241211 10.87644577026367 26.12289047241211 L 19.89297485351562 26.12289047241211 C 20.34751892089844 26.12289047241211 20.71942138671875 25.75099182128906 20.71942138671875 25.29644393920898 Z" fill="rgb(18,38,63)" stroke="none" stroke-width="0"/></g><g transform="matrix(1 0 0 1 5.983055949211121 2.857597827911377)"><path d="M 10.87644672393799 28.05999946594238 C 10.42190074920654 28.05999946594238 10.05000019073486 28.43190002441406 10.05000019073486 28.88644599914551 C 10.05000019073486 29.34099006652832 10.42190074920654 29.71289253234863 10.87644672393799 29.71289253234863 L 15.82686042785645 29.71289253234863 C 16.28140640258789 29.71289253234863 16.65330696105957 29.34099006652832 16.65330696105957 28.88644599914551 C 16.65330696105957 28.43190002441406 16.28140640258789 28.05999946594238 15.82686042785645 28.05999946594238 L 10.87644672393799 28.05999946594238 Z" fill="rgb(18,38,63)" stroke="none" stroke-width="0"/></g><g transform="matrix(1 0 0 1 7.459997653961182 7.635530471801758)"><path d="M 52.71355819702148 47.43082809448242 C 53.16810607910156 47.43082809448242 53.54000473022461 47.05892944335938 53.54000473022461 46.60438537597656 L 53.54000473022461 39.05066299438477 C 53.54000473022461 37.72835159301758 52.46562576293945 36.65396881103516 51.15157318115234 36.65396881103516 L 50.80447006225586 36.65396881103516 L 50.80447006225586 33.22421646118164 C 50.80447006225586 31.29033088684082 50.05240249633789 29.48041343688965 48.68876647949219 28.12504196166992 C 47.32512664794922 26.76140403747559 45.51520919799805 26.00934028625488 43.5895881652832 26.00934028625488 C 39.6143798828125 26.00934028625488 36.37471389770508 29.24901008605957 36.37471389770508 33.22421646118164 L 36.37471389770508 36.65396881103516 L 36.02760696411133 36.65396881103516 C 34.70529556274414 36.65396881103516 33.63091278076172 37.72834777832031 33.63091278076172 39.05066299438477 L 33.63091278076172 41.64570617675781 L 3.316858291625977 41.64570617675781 L 6.697023868560791 17.29859733581543 C 6.771404266357422 16.76967239379883 7.234213829040527 16.36471366882324 7.77140474319458 16.36471366882324 L 43.96975326538086 16.36471366882324 C 44.28380584716797 16.36471366882324 44.58132553100586 16.49694442749023 44.78793716430664 16.73661422729492 C 44.99454879760742 16.97628402709961 45.08545684814453 17.28206825256348 45.04413604736328 17.59611701965332 L 44.15983963012695 24.00107765197754 C 44.09372329711914 24.45562171936035 44.41603851318359 24.86884498596191 44.8623161315918 24.93496131896973 C 45.30859756469727 25.00107574462891 45.73008728027344 24.67876243591309 45.79620361328125 24.23248100280762 L 46.68050003051758 17.82752227783203 C 46.78793716430664 17.04239654541016 46.54826736450195 16.24901008605957 46.03587341308594 15.65396595001221 C 45.54000473022461 15.08371734619141 44.82926177978516 14.75313949584961 44.0854606628418 14.72834587097168 L 44.0854606628418 11.38950252532959 C 44.0854606628418 10.17462539672852 43.09372329711914 9.182889938354492 41.87884521484375 9.182889938354492 L 40.77140808105469 9.182889938354492 L 40.77140808105469 3.844046831130981 C 40.77140808105469 2.017600536346436 39.28380584716797 0.5299968719482422 37.45735931396484 0.5299968719482422 L 10.3912410736084 0.5299968719482422 C 8.564794540405273 0.5299968719482422 7.077190399169922 2.017600297927856 7.077190399169922 3.844046831130981 L 7.077190399169922 4.92669153213501 L 3.746611356735229 4.92669153213501 C 2.531735181808472 4.92669153213501 1.539999485015869 5.918427467346191 1.539999485015869 7.133303165435791 L 1.539999485015869 42.46388626098633 C 1.539999485015869 42.51347351074219 1.556528329849243 42.54652786254883 1.56479287147522 42.59611511230469 C 1.573057413101196 42.64570617675781 1.573057413101196 42.69528961181641 1.58958625793457 42.73661041259766 C 1.614379644393921 42.80272674560547 1.655701875686646 42.86058044433594 1.688759803771973 42.91843032836914 C 1.705288648605347 42.94322204589844 1.713553190231323 42.97628021240234 1.738346576690674 43.00107574462891 C 1.746610879898071 43.00933837890625 1.754875421524048 43.00933837890625 1.754875421524048 43.01760482788086 C 1.812726736068726 43.07545471191406 1.878842353820801 43.12504196166992 1.953222513198853 43.16636276245117 C 1.978015899658203 43.18289184570312 1.994544744491577 43.19942092895508 2.027602672576904 43.21595001220703 C 2.126775979995728 43.25727462768555 2.242478609085083 43.29033279418945 2.358181238174438 43.29033279418945 L 33.63091278076172 43.29033279418945 L 33.63091278076172 51.80273056030273 C 33.63091278076172 53.12504577636719 34.70529174804688 54.19942092895508 36.02760696411133 54.19942092895508 L 51.15157318115234 54.19942092895508 C 52.46562576293945 54.19942092895508 53.54000473022461 53.12503814697266 53.54000473022461 51.80272674560547 L 53.54000473022461 50.29032897949219 C 53.54000473022461 49.83578109741211 53.16810607910156 49.46388244628906 52.71355819702148 49.46388244628906 C 52.25901031494141 49.46388244628906 51.88711166381836 49.83578109741211 51.88711166381836 50.29032897949219 L 51.88711166381836 51.80272674560547 C 51.88711166381836 52.21595001220703 51.56479644775391 52.54652786254883 51.15157318115234 52.54652786254883 L 36.02760696411133 52.54652786254883 C 35.61438369750977 52.54652786254883 35.28380584716797 52.21595001220703 35.28380584716797 51.80272674560547 L 35.28380584716797 39.0506591796875 C 35.28380584716797 38.63743591308594 35.61438369750977 38.30685424804688 36.02760696411133 38.30685424804688 L 51.15157318115234 38.30685424804688 C 51.56479644775391 38.30685424804688 51.88711166381836 38.62916946411133 51.88711166381836 39.0506591796875 L 51.88711166381836 46.60437774658203 C 51.88711166381836 47.06718826293945 52.25901412963867 47.43082427978516 52.71355819702148 47.43082427978516 Z M 41.8623161315918 10.82751941680908 C 42.1681022644043 10.82751941680908 42.41603469848633 11.07545375823975 42.41603469848633 11.38123798370361 L 42.41603469848633 14.70355319976807 L 40.74661254882812 14.70355319976807 L 40.74661254882812 10.81925582885742 L 41.86231231689453 10.81925582885742 Z M 8.721818923950195 3.844047784805298 C 8.721818923950195 2.926692008972168 9.465620040893555 2.18289041519165 10.38297653198242 2.18289041519165 L 37.42430114746094 2.18289041519165 C 38.34165573120117 2.18289041519165 39.08545684814453 2.926692008972168 39.08545684814453 3.844047784805298 L 39.08545684814453 14.71181774139404 L 8.721816062927246 14.71181774139404 L 8.721818923950195 3.844047784805298 Z M 3.746611356735229 6.579585075378418 L 7.068925380706787 6.579585075378418 L 7.068925380706787 14.81099033355713 C 6.027603149414062 15.09198188781738 5.209421157836914 15.95975017547607 5.052396297454834 17.06719017028809 L 3.192892074584961 30.50520515441895 L 3.192892074584961 7.133301258087158 C 3.192892074584961 6.827516555786133 3.440825939178467 6.579582214355469 3.746611356735229 6.579582214355469 Z M 38.02760696411133 33.22421646118164 C 38.02760696411133 30.15810394287109 40.52347564697266 27.66223526000977 43.5895881652832 27.66223526000977 C 45.07719039916992 27.66223526000977 46.4738883972168 28.24074745178223 47.52347564697266 29.29859733581543 C 48.57306289672852 30.33992004394531 49.15157699584961 31.73661613464355 49.15157699584961 33.22421646118164 L 49.15157699584961 36.65397262573242 L 47.58959197998047 36.65397262573242 L 47.58959197998047 33.22421646118164 C 47.58959197998047 32.15810012817383 47.17636871337891 31.14983940124512 46.4243049621582 30.40603637695312 C 45.66397476196289 29.64570808410645 44.65570831298828 29.23248481750488 43.58959197998047 29.23248481750488 C 41.38298034667969 29.23248481750488 39.58959197998047 31.02587127685547 39.58959197998047 33.23248291015625 L 39.58959197998047 36.66223907470703 L 38.02761077880859 36.66223907470703 L 38.02760696411133 33.22421646118164 Z M 45.93669891357422 36.65397262573242 L 41.24248123168945 36.65397262573242 L 41.24248123168945 33.22421646118164 C 41.24248123168945 31.93496131896973 42.29206848144531 30.87711143493652 43.5895881652832 30.87711143493652 C 44.21768569946289 30.87711143493652 44.80446624755859 31.12504386901855 45.25901031494141 31.57132530212402 C 45.69702529907227 32.00933837890625 45.94496154785156 32.59611892700195 45.94496154785156 33.22421646118164 L 45.94496154785156 36.65397262573242 Z" fill="rgb(18,38,63)" stroke="none" stroke-width="0"/></g><g transform="matrix(1 0 0 1 -0.7785935401916504 -0.9918212890625)"><path d="M 51.82817840576172 58.77718734741211 C 52.2827262878418 58.77718734741211 52.65462493896484 58.40528869628906 52.65462493896484 57.95074462890625 L 52.65462493896484 55.74413299560547 C 53.80338668823242 55.38875961303711 54.65462493896484 54.33090972900391 54.65462493896484 53.06644439697266 C 54.65462493896484 51.50446319580078 53.39016342163086 50.23999786376953 51.82817840576172 50.23999786376953 C 50.27445983886719 50.23999786376953 49.0099983215332 51.50445938110352 49.0099983215332 53.06644058227539 C 49.0099983215332 54.33090209960938 49.85297393798828 55.39701843261719 51.0099983215332 55.7441291809082 L 51.0099983215332 57.95074462890625 C 51.00173568725586 58.41355514526367 51.37363433837891 58.77718734741211 51.82818222045898 58.77718734741211 Z M 50.66289138793945 53.06644439697266 C 50.66289138793945 52.42181777954102 51.18355178833008 51.89289093017578 51.82817840576172 51.89289093017578 C 52.47280502319336 51.89289093017578 53.00173187255859 52.42181777954102 53.00173187255859 53.06644439697266 C 53.00173187255859 53.7110710144043 52.47280502319336 54.23173522949219 51.82817840576172 54.23173522949219 C 51.18355178833008 54.23173522949219 50.66289138793945 53.70280838012695 50.66289138793945 53.06644439697266 Z" fill="rgb(18,38,63)" stroke="none" stroke-width="0"/></g></svg>