<svg xmlns="http://www.w3.org/2000/svg" width="128.00" height="128.00" viewBox="0 0 128.00 128.00"><g transform="matrix(1 0 0 1 -72.74609375 -7992.0)"><g transform="matrix(1 0 0 1 72.74609375 7992)"><circle cx="64" cy="64" r="61.0" fill="rgb(230,249,255)" stroke="rgb(251,130,255)" stroke-width="6"/></g><g transform="matrix(1 0 0 1 106.74609375 8026.138671875)"><g><g><path fill-rule="evenodd" d="M 39 26.59000015258789 C 38.61227416992188 26.98003768920898 38.61227416992188 27.60996055603027 39 28 L 33 34 L 32.9900016784668 34 C 32.80513381958008 33.8128776550293 32.55304336547852 33.70756149291992 32.29000091552734 33.70756149291992 C 32.02695846557617 33.70756149291992 31.77486801147461 33.8128776550293 31.59000015258789 34 L 28.29000091552734 37.29000091552734 C 27.90002250671387 37.68301010131836 27.90002250671387 38.31698989868164 28.29000091552734 38.70999908447266 L 32.59000015258789 43 L 22 43 C 21.44771575927734 43 21 43.44771575927734 21 44 L 21 48.79000091552734 C 21.04211807250977 51.41769027709961 19.09786033630371 53.65509033203125 16.48999977111816 53.97999954223633 C 16.3305721282959 53.99664306640625 16.17025947570801 54.00332260131836 16.01000022888184 54 L 16 54 C 13.23857975006104 54 11 51.76142120361328 11 49 L 11 6.209999084472656 C 11.04211807250977 3.582309007644653 9.097860336303711 1.344909191131592 6.489999771118164 1.019999027252197 C 6.33057165145874 1.00335681438446 6.170259952545166 0.9966772198677063 6.009999752044678 0.9999990463256836 L 34 0.9999990463256836 C 36.76142120361328 0.9999990463256836 39 3.238579034805298 39 5.999999046325684 L 39 26.59000015258789 Z" fill="rgb(255,219,0)" stroke="none" stroke-width="0"/></g><g><path fill-rule="evenodd" d="M 39 6 C 39 4.673920154571533 38.47321701049805 3.40214991569519 37.53553009033203 2.464469909667969 C 36.59784698486328 1.526787996292114 35.32608032226562 0.9999998807907104 34 0.9999998807907104 L 31 0.9999998807907104 C 32.32608032226562 0.9999998807907104 33.59785079956055 1.52678394317627 34.53553009033203 2.464469909667969 C 35.47321319580078 3.402151823043823 36 4.673919677734375 36 6 L 36 26.59000015258789 C 35.61227416992188 26.98003768920898 35.61227416992188 27.60996055603027 36 28 L 30 34 L 29.98999977111816 34 C 29.80513191223145 33.8128776550293 29.55304145812988 33.70756149291992 29.28999900817871 33.70756149291992 C 29.02695655822754 33.70756149291992 28.77486610412598 33.8128776550293 28.58999824523926 34 L 25.28999900817871 37.29000091552734 C 24.90002059936523 37.68301010131836 24.90002059936523 38.31698989868164 25.28999900817871 38.70999908447266 L 29.59000015258789 43 L 32.59000015258789 43 L 28.29000091552734 38.70999908447266 C 27.90002250671387 38.31698989868164 27.90002250671387 37.68301010131836 28.29000091552734 37.29000091552734 L 31.59000015258789 34 C 31.77486801147461 33.8128776550293 32.02695846557617 33.70756149291992 32.29000091552734 33.70756149291992 C 32.55304336547852 33.70756149291992 32.80513381958008 33.8128776550293 32.9900016784668 34 L 33 34 L 39 28 C 38.61227416992188 27.60996246337891 38.61227416992188 26.98003959655762 39 26.59000015258789 L 39 6 Z" fill="rgb(253,192,8)" stroke="none" stroke-width="0"/></g><g><path fill-rule="evenodd" d="M 11 6.210000038146973 L 11 28 L 2 28 C 1.447715044021606 28 1 27.55228424072266 1 27 L 1 6 C 1 3.238579988479614 3.238579988479614 1 6 1 L 6.010000228881836 1 C 6.170260429382324 0.9966781735420227 6.330572128295898 1.003357768058777 6.490000247955322 1.019999980926514 C 9.097869873046875 1.344910979270935 11.0421199798584 3.58230996131897 11 6.210000038146973 Z" fill="rgb(255,151,1)" stroke="none" stroke-width="0"/></g><g><path fill-rule="evenodd" d="M 6.489999771118164 1.019999980926514 C 6.33057165145874 1.003357768058777 6.170259952545166 0.9966781735420227 6.009999752044678 1 L 5.999999523162842 1 C 5.499601364135742 1.008488178253174 5.003348350524902 1.092433094978333 4.527999401092529 1.248999953269958 C 6.623449325561523 1.994894027709961 8.016819000244141 3.985819816589355 7.999999046325684 6.210000038146973 L 7.999999046325684 28 L 10.99999904632568 28 L 10.99999904632568 6.209999084472656 C 11.04211711883545 3.582309007644653 9.097859382629395 1.344909191131592 6.489998817443848 1.019999027252197 Z" fill="rgb(244,124,0)" stroke="none" stroke-width="0"/></g><g><path fill-rule="evenodd" d="M 49 46.84999847412109 L 49 49 C 49 51.76142120361328 46.76142120361328 54 44 54 L 41 54 C 40.9967041015625 52.89680099487305 40.10320281982422 52.00328826904297 39 52 L 27 52 C 25.89680099487305 52.0032958984375 25.0032901763916 52.89679718017578 25 54 L 16.01000022888184 54 C 16.17025947570801 54.00332260131836 16.3305721282959 53.99664306640625 16.48999977111816 53.97999954223633 C 19.09786987304688 53.65509033203125 21.0421199798584 51.41769027709961 21 48.79000091552734 L 21 44 C 21 43.44771575927734 21.44771575927734 43 22 43 L 32.59000015258789 43 L 36.68999862670898 47.09999847412109 C 37.08003616333008 47.48772430419922 37.70995712280273 47.48772430419922 38.09999847412109 47.09999847412109 L 41.38999938964844 43.80999755859375 C 41.77772521972656 43.41996002197266 41.77772521972656 42.7900390625 41.38999938964844 42.39999771118164 L 41.39999771118164 42.39999771118164 L 42.97999954223633 40.82999801635742 L 49 46.84999847412109 Z" fill="rgb(255,234,58)" stroke="none" stroke-width="0"/></g><g><path fill-rule="evenodd" d="M 42.97999954223633 40.83000183105469 L 41.47999954223633 42.33000183105469 L 46 46.85000228881836 L 46 49.00000381469727 C 46 51.76142501831055 43.76142120361328 54.00000381469727 41 54.00000381469727 L 44 54.00000381469727 C 46.76142120361328 54.00000381469727 49 51.76142501831055 49 49.00000381469727 L 49 46.85000228881836 L 42.97999954223633 40.83000183105469 Z" fill="rgb(252,215,52)" stroke="none" stroke-width="0"/></g><g><path fill-rule="evenodd" d="M 52.09999847412109 33.09999847412109 L 48.80999755859375 36.39999771118164 C 48.41996002197266 36.78772354125977 47.7900390625 36.78772354125977 47.39999771118164 36.39999771118164 L 39 27.99999809265137 C 38.61227416992188 27.60996055603027 38.61227416992188 26.98003768920898 39 26.58999824523926 L 42.29000091552734 23.28999900817871 C 42.68301010131836 22.90002059936523 43.31698989868164 22.90002059936523 43.70999908447266 23.28999900817871 L 52.09999847412109 31.68999862670898 C 52.48772430419922 32.08003616333008 52.48772430419922 32.70995712280273 52.09999847412109 33.09999847412109 Z" fill="rgb(159,82,45)" stroke="none" stroke-width="0"/></g><g><path fill-rule="evenodd" d="M 52.09999847412109 31.69000053405762 L 43.70999908447266 23.29000091552734 C 43.31698989868164 22.90002250671387 42.68301010131836 22.90002250671387 42.29000091552734 23.29000091552734 L 41.50099945068359 24.08200073242188 L 49.10099792480469 31.69000053405762 C 49.48872375488281 32.08003997802734 49.48872375488281 32.7099609375 49.10099792480469 33.10000228881836 L 46.60099792480469 35.60000228881836 L 47.40099716186523 36.40000152587891 C 47.79103469848633 36.78772735595703 48.42095565795898 36.78772735595703 48.81099700927734 36.40000152587891 L 52.10099792480469 33.10000228881836 C 52.48844528198242 32.70969009399414 52.48799896240234 32.07976150512695 52.09999847412109 31.69000244140625 Z" fill="rgb(120,62,34)" stroke="none" stroke-width="0"/></g><g><path fill-rule="evenodd" d="M 41.38999938964844 43.81000137329102 L 38.09999847412109 47.10000228881836 C 37.7099609375 47.48772811889648 37.08003997802734 47.48772811889648 36.68999862670898 47.10000228881836 L 32.59000015258789 43.00000381469727 L 28.29000091552734 38.71000289916992 C 27.90002250671387 38.31699371337891 27.90002250671387 37.68301391601562 28.29000091552734 37.29000473022461 L 31.59000015258789 34.00000381469727 C 31.77486801147461 33.81288146972656 32.02695846557617 33.70756530761719 32.29000091552734 33.70756530761719 C 32.55304336547852 33.70756530761719 32.80513381958008 33.81288146972656 32.9900016784668 34.00000381469727 L 33 34.00000381469727 L 41.38999938964844 42.40000152587891 C 41.77772521972656 42.7900390625 41.77772521972656 43.41996002197266 41.38999938964844 43.81000137329102 Z" fill="rgb(159,82,45)" stroke="none" stroke-width="0"/></g><g><path fill-rule="evenodd" d="M 47.40000152587891 36.40000152587891 L 45.81999969482422 37.98000335693359 L 42.97999954223633 40.83000183105469 L 41.39999771118164 42.40000152587891 L 41.38999938964844 42.40000152587891 L 33 34 L 39 28 L 47.40000152587891 36.40000152587891 Z" fill="rgb(120,62,34)" stroke="none" stroke-width="0"/></g><g><path fill-rule="evenodd" d="M 58.40000152587891 53.40000152587891 C 58.02957916259766 53.78113555908203 57.52148056030273 53.99734878540039 56.9900016784668 54 C 56.44886779785156 54.00168228149414 55.92984008789062 53.78542327880859 55.55000305175781 53.40000152587891 L 42.98000335693359 40.83000183105469 L 45.82000350952148 37.98000335693359 L 58.40000152587891 50.55000305175781 C 58.78373718261719 50.92483139038086 59.00008392333984 51.43857955932617 59.00008392333984 51.97500228881836 C 59.00008392333984 52.51142501831055 58.78373718261719 53.02517318725586 58.40000152587891 53.40000152587891 Z" fill="rgb(159,82,45)" stroke="none" stroke-width="0"/></g><g><path fill-rule="evenodd" d="M 41 54 L 41 58 C 41 58.55228424072266 40.55228424072266 59 40 59 L 26 59 C 25.44771575927734 59 25 58.55228424072266 25 58 L 25 54 C 25.00329399108887 52.89680099487305 25.89679718017578 52.00328826904297 27 52 L 39 52 C 40.10319900512695 52.0032958984375 40.99671173095703 52.89679718017578 41 54 Z" fill="rgb(159,82,45)" stroke="none" stroke-width="0"/></g><g><path fill-rule="evenodd" d="M 39 52 L 36 52 C 37.10319900512695 52.0032958984375 37.99671173095703 52.89679718017578 38 54 L 38 58 C 38 58.55228424072266 37.55228424072266 59 37 59 L 40 59 C 40.55228424072266 59 41 58.55228424072266 41 58 L 41 54 C 40.9967041015625 52.89680099487305 40.10320281982422 52.00328826904297 39 52 Z" fill="rgb(120,62,34)" stroke="none" stroke-width="0"/></g><g><g><path fill-rule="evenodd" d="M 16 8 L 34 8 C 34.55228424072266 8 35 7.552285194396973 35 7 C 35 6.447714805603027 34.55228424072266 6 34 6 L 16 6 C 15.44771480560303 6 15 6.447714805603027 15 7 C 15 7.552285194396973 15.44771480560303 8 16 8 Z" fill="rgb(0,0,0)" stroke="none" stroke-width="0"/></g><g><path fill-rule="evenodd" d="M 16 14 L 34 14 C 34.55228424072266 14 35 13.55228519439697 35 13 C 35 12.44771480560303 34.55228424072266 12 34 12 L 16 12 C 15.44771480560303 12 15 12.44771480560303 15 13 C 15 13.55228519439697 15.44771480560303 14 16 14 Z" fill="rgb(0,0,0)" stroke="none" stroke-width="0"/></g><g><path fill-rule="evenodd" d="M 16 20 L 34 20 C 34.55228424072266 20 35 19.55228424072266 35 19 C 35 18.44771575927734 34.55228424072266 18 34 18 L 16 18 C 15.44771480560303 18 15 18.44771575927734 15 19 C 15 19.55228424072266 15.44771480560303 20 16 20 Z" fill="rgb(0,0,0)" stroke="none" stroke-width="0"/></g><g><path fill-rule="evenodd" d="M 16 26 L 34 26 C 34.55228424072266 26 35 25.55228424072266 35 25 C 35 24.44771575927734 34.55228424072266 24 34 24 L 16 24 C 15.44771480560303 24 15 24.44771575927734 15 25 C 15 25.55228424072266 15.44771480560303 26 16 26 Z" fill="rgb(0,0,0)" stroke="none" stroke-width="0"/></g><g><path fill-rule="evenodd" d="M 16 32 L 28 32 C 28.55228424072266 32 29 31.55228424072266 29 31 C 29 30.44771575927734 28.55228424072266 30 28 30 L 16 30 C 15.44771480560303 30 15 30.44771575927734 15 31 C 15 31.55228424072266 15.44771480560303 32 16 32 Z" fill="rgb(0,0,0)" stroke="none" stroke-width="0"/></g><g><path fill-rule="evenodd" d="M 24 37 C 24 36.44771575927734 23.55228424072266 36 23 36 L 16 36 C 15.44771480560303 36 15 36.44771575927734 15 37 C 15 37.55228424072266 15.44771480560303 38 16 38 L 23 38 C 23.55228424072266 38 24 37.55228424072266 24 37 Z" fill="rgb(0,0,0)" stroke="none" stroke-width="0"/></g><g><path d="M 47.23500061035156 37.98099899291992 L 47.60000228881836 37.61599731445312 C 47.76303100585938 37.66067123413086 47.93099212646484 37.68485641479492 48.10000228881836 37.68799591064453 C 48.6302490234375 37.68814849853516 49.13885116577148 37.47772979736328 49.51400375366211 37.10299682617188 L 52.81000518798828 33.80999755859375 C 53.18525314331055 33.43490219116211 53.39608001708984 32.92607116699219 53.39608001708984 32.3954963684082 C 53.39608001708984 31.86492156982422 53.18525314331055 31.3560962677002 52.81000518798828 30.98099708557129 L 44.41000366210938 22.58799743652344 C 43.62900543212891 21.8072338104248 42.36300277709961 21.8072338104248 41.58200454711914 22.58799743652344 L 40.00000381469727 24.17299652099609 L 40.00000381469727 5.999996185302734 C 39.99669647216797 2.687656164169312 37.31234359741211 0.003306388854980469 34.00000381469727 -3.814697265625e-06 L 6.023004531860352 -3.814697265625e-06 C 4.427724361419678 -0.006119104567915201 2.895684480667114 0.6233211755752563 1.76548433303833 1.749206185340881 C 0.6352843046188354 2.875086307525635 -5.7220458984375e-06 4.404706001281738 4.291534423828125e-06 5.999996185302734 L 4.291534423828125e-06 26.99999618530273 C 4.291534423828125e-06 28.10456657409668 0.8954352736473083 28.99999618530273 2.000004291534424 28.99999618530273 L 10.00000381469727 28.99999618530273 L 10.00000381469727 48.99999618530273 C 10.01264476776123 52.31235504150391 12.69762420654297 54.99286651611328 16.0100040435791 54.99999618530273 L 24.00000381469727 54.99999618530273 L 24.00000381469727 57.99999618530273 C 24.00000381469727 59.10456466674805 24.89543533325195 59.99999618530273 26.00000381469727 59.99999618530273 L 40.00000381469727 59.99999618530273 C 41.10457229614258 59.99999618530273 42.00000381469727 59.10456466674805 42.00000381469727 57.99999618530273 L 42.00000381469727 54.99999618530273 L 44.00000381469727 54.99999618530273 C 47.21271514892578 54.99586868286133 49.85207366943359 52.46186447143555 49.98700332641602 49.25199508666992 L 54.83500289916992 54.09999465942383 C 55.40422058105469 54.6758918762207 56.18027114868164 54.99999618530273 56.9900016784668 54.99999618530273 C 58.21121978759766 54.99862670898438 59.3109130859375 54.26047515869141 59.77474975585938 53.13077545166016 C 60.23858642578125 52.00107574462891 59.97489929199219 50.7031364440918 59.10700225830078 49.843994140625 L 47.23500061035156 37.98099899291992 Z M 33.29999923706055 42.29999923706055 L 33.28300094604492 42.28300094604492 L 29 38 L 32.29199981689453 34.70899963378906 L 32.29899978637695 34.70899963378906 L 40.6870002746582 43.09999847412109 L 37.40000152587891 46.39999771118164 L 33.29999923706055 42.29999923706055 Z M 41.40000152587891 40.98299789428711 L 34.41400146484375 34 L 39 29.41600036621094 L 45.98600006103516 36.40000152587891 L 41.40000152587891 40.98299789428711 Z M 43 23.99999809265137 L 51.40000152587891 32.39999771118164 L 48.10000228881836 35.68899917602539 L 39.72300338745117 27.30999946594238 C 39.72300338745117 27.30999946594238 39.71600341796875 27.29800033569336 39.71100234985352 27.29299926757812 L 39.71800231933594 27.28299903869629 L 43 23.99999809265137 Z M 10 26.99999809265137 L 2 26.99999809265137 L 2 5.999998092651367 C 2.002969026565552 4.874588012695312 2.478251934051514 3.802118062973022 3.309999942779541 3.043998003005981 C 4.040881156921387 2.373639106750488 4.996250152587891 2.001198053359985 5.98799991607666 1.999997973442078 L 6 1.999997973442078 L 6.085999965667725 1.999997973442078 C 6.185999870300293 1.999997973442078 6.290999889373779 1.999997973442078 6.394999980926514 2.014997959136963 C 8.490129470825195 2.292566061019897 10.04224014282227 4.099977970123291 10 6.212997913360596 L 10 26.99999809265137 Z M 12 49 L 12 6.213001251220703 C 12.00043487548828 4.660140991210938 11.43113040924072 3.161091327667236 10.39999961853027 2.000001430511475 L 34 2.000001430511475 C 36.20914077758789 2.000001430511475 38 3.7908616065979 38 6.000001430511475 L 38 26.26400184631348 C 37.72225570678711 26.7271671295166 37.64362716674805 27.28297233581543 37.78200149536133 27.80500221252441 L 32.80000305175781 32.78400421142578 C 32.11360931396484 32.59865570068359 31.38046264648438 32.79299163818359 30.87600326538086 33.29400253295898 L 27.58300399780273 36.58600234985352 C 26.8022403717041 37.36700057983398 26.8022403717041 38.63300323486328 27.58300399780273 39.41400146484375 L 30.17300415039062 42 L 22.00000381469727 42 C 20.89543342590332 42 20.00000381469727 42.89543151855469 20.00000381469727 44 L 20.00000381469727 48.79000091552734 C 20.03896141052246 50.91152191162109 18.47386360168457 52.72187042236328 16.36900329589844 52.9900016784668 C 16.24633979797363 53.00114059448242 16.12309074401855 53.00448226928711 16.00000381469727 53 C 13.79450416564941 52.99123001098633 12.00877380371094 51.20550155639648 12.00000381469727 49 Z M 26 58 L 26 54 C 26 53.44771575927734 26.44771575927734 53 27 53 L 39 53 C 39.55228424072266 53 40 53.44771575927734 40 54 L 40 58 L 26 58 Z M 48 49 C 48 51.20914077758789 46.20914077758789 53 44 53 L 41.81600189208984 53 C 41.39374542236328 51.80564880371094 40.26679229736328 51.0052490234375 39 51 L 27 51 C 25.73320960998535 51.00525283813477 24.60625076293945 51.80564880371094 24.18400001525879 53 L 20.39999961853027 53 C 21.43043899536133 51.83967971801758 21.99969863891602 50.34181976318359 22 48.79000091552734 L 22 44 L 32.17300033569336 44 L 35.97999954223633 47.80799865722656 C 36.76213455200195 48.58601379394531 38.02585983276367 48.58601379394531 38.80799865722656 47.80799865722656 L 42.09999847412109 44.51699829101562 C 42.60723876953125 44.01862716674805 42.80404663085938 43.28422927856445 42.61399841308594 42.5989990234375 L 42.97299957275391 42.23999786376953 L 48 47.26499938964844 L 48 49 Z M 57.68600082397461 52.70000076293945 C 57.28622817993164 53.08507537841797 56.65243911743164 53.08152770996094 56.25699996948242 52.69200134277344 L 49.70800018310547 46.14400100708008 L 44.39099884033203 40.8280029296875 L 45.81999969482422 39.40000152587891 L 57.70000076293945 51.26300048828125 C 57.89558792114258 51.45177459716797 58.00514221191406 51.71253967285156 58.0030632019043 51.98435974121094 C 58.00098419189453 52.25617980957031 57.887451171875 52.51523971557617 57.68899917602539 52.70100021362305 Z" fill="rgb(0,0,0)" stroke="none" stroke-width="0"/></g></g></g></g></g></svg>